<svg id="Grupo_226" data-name="Grupo 226" xmlns="http://www.w3.org/2000/svg" width="69.077" height="69.077" viewBox="0 0 69.077 69.077">
  <g id="Grupo_71" data-name="Grupo 71" transform="translate(0 16.349)">
    <g id="Grupo_70" data-name="Grupo 70" transform="translate(0 0)">
      <path id="Trazado_47" data-name="Trazado 47" d="M65.635,139.344l-3.134-.392a21.549,21.549,0,0,0-4.023-6.353l2.3-9.762a1.349,1.349,0,0,0-1.312-1.659h-.3a9.3,9.3,0,0,0-8.628,5.937,21.216,21.216,0,0,0-2.95-.933,1.349,1.349,0,0,0-.621,2.626,18.683,18.683,0,0,1,8.913,4.959,1.345,1.345,0,0,0,.327.336,18.776,18.776,0,0,1,4.054,6.548,1.349,1.349,0,0,0,1.1.878l3.934.493a1.234,1.234,0,0,1,1.079,1.222v6.8a1.234,1.234,0,0,1-1.079,1.222l-3.646.456a1.349,1.349,0,0,0-1.12.936,18.719,18.719,0,0,1-5.943,8.837,1.349,1.349,0,0,0-.488,1.039v7.457a1.215,1.215,0,0,1-1.214,1.214H45.063a1.215,1.215,0,0,1-1.214-1.214v-2.842A1.349,1.349,0,0,0,42.5,165.8H31.165a1.349,1.349,0,0,0-1.349,1.349v2.842a1.215,1.215,0,0,1-1.214,1.214H20.776a1.215,1.215,0,0,1-1.214-1.214v-5.266a1.349,1.349,0,0,0-.705-1.186A18.752,18.752,0,0,1,27.789,128.3h1.691a1.349,1.349,0,1,0,0-2.7H27.789a21.485,21.485,0,0,0-20.8,16.2H6a3.305,3.305,0,1,1,0-6.611,1.349,1.349,0,0,0,0-2.7A6,6,0,1,0,6,144.5h.49a21.451,21.451,0,0,0,10.37,21.013v4.48a3.917,3.917,0,0,0,3.912,3.912H28.6a3.917,3.917,0,0,0,3.912-3.912V168.5H41.15v1.493a3.917,3.917,0,0,0,3.912,3.912h7.826a3.917,3.917,0,0,0,3.912-3.912v-6.835a21.4,21.4,0,0,0,6.03-8.862l2.8-.351a3.936,3.936,0,0,0,3.442-3.9v-6.8A3.936,3.936,0,0,0,65.635,139.344Zm-9.423-8.892a21.515,21.515,0,0,0-3.218-2.179,6.588,6.588,0,0,1,4.732-4.233Z" transform="translate(0 -121.178)"/>
    </g>
  </g>
  <g id="Grupo_73" data-name="Grupo 73" transform="translate(51.403 33.864)">
    <g id="Grupo_72" data-name="Grupo 72" transform="translate(0)">
      <path id="Trazado_48" data-name="Trazado 48" d="M383.3,251.4a1.348,1.348,0,1,0,.4.954A1.359,1.359,0,0,0,383.3,251.4Z" transform="translate(-381.001 -251)"/>
    </g>
  </g>
  <g id="Grupo_75" data-name="Grupo 75" transform="translate(38.214 7.87)">
    <g id="Grupo_74" data-name="Grupo 74" transform="translate(0 0)">
      <path id="Trazado_49" data-name="Trazado 49" d="M284.591,58.333a1.349,1.349,0,0,0-1.349,1.349v5.351a1.349,1.349,0,1,0,2.7,0V59.682A1.349,1.349,0,0,0,284.591,58.333Z" transform="translate(-283.242 -58.333)"/>
    </g>
  </g>
  <g id="Grupo_79" data-name="Grupo 79" transform="translate(27.254 0)">
    <g id="Grupo_78" data-name="Grupo 78" transform="translate(0)">
      <path id="Trazado_51" data-name="Trazado 51" d="M203.349,0A1.349,1.349,0,0,0,202,1.349V3.643a1.349,1.349,0,1,0,2.7,0V1.349A1.349,1.349,0,0,0,203.349,0Z" transform="translate(-202)"/>
    </g>
  </g>
  <g id="Grupo_85" data-name="Grupo 85" transform="translate(22.936 6.483)">
    <g id="Grupo_84" data-name="Grupo 84" transform="translate(0)">
      <path id="Trazado_54" data-name="Trazado 54" d="M175.667,48.052a5.666,5.666,0,1,0,5.666,5.666A5.673,5.673,0,0,0,175.667,48.052Zm0,8.635a2.968,2.968,0,1,1,2.968-2.968A2.972,2.972,0,0,1,175.667,56.687Z" transform="translate(-170 -48.052)"/>
    </g>
  </g>
  <g id="Grupo_87" data-name="Grupo 87" transform="translate(26.714 19.968)">
    <g id="Grupo_86" data-name="Grupo 86" transform="translate(0 0)">
      <path id="Trazado_55" data-name="Trazado 55" d="M216.888,156.635h-1.214a5.666,5.666,0,1,0-9.649,0h-6.676a1.349,1.349,0,1,0,0,2.7h17.539a1.349,1.349,0,0,0,0-2.7Zm-6.039,0a2.968,2.968,0,1,1,2.968-2.968A2.971,2.971,0,0,1,210.85,156.635Z" transform="translate(-198 -148)"/>
    </g>
  </g>
</svg>
