<svg id="Grupo_15" data-name="Grupo 15" xmlns="http://www.w3.org/2000/svg" width="65.463" height="63.106" viewBox="0 0 65.463 63.106">
  <path id="Trazado_9" data-name="Trazado 9" d="M768.985,175.783a18.066,18.066,0,1,1,18.066-18.066A18.065,18.065,0,0,1,768.985,175.783Zm0-33.518a15.46,15.46,0,1,0,15.461,15.461v-.009A15.477,15.477,0,0,0,768.985,142.264Z" transform="translate(-733.18 -139.651)" fill="#282e3c"/>
  <path id="Trazado_10" data-name="Trazado 10" d="M804.96,165.479a4.966,4.966,0,0,0-6.186-1.187l-1.426-1.734a3.978,3.978,0,0,0-5.173-.766l-1.4.926-.843-1a3.971,3.971,0,0,0-5.167-.767l-9.52,6.2L764.664,162.8a9.964,9.964,0,0,0-9.964,1.426l-13.491,10.73a1.3,1.3,0,1,0,1.5,2.131,1.39,1.39,0,0,0,.124-.1l13.489-10.73a7.361,7.361,0,0,1,7.389-1.051l18.7,7.666a2.415,2.415,0,0,1-1.8,4.477l-12.656-4.936a1.3,1.3,0,1,0-.95,2.422l12.617,4.974a5.109,5.109,0,0,0,1.832.346,5.045,5.045,0,0,0,5.028-4.791l.145-.076,13.183-8.608a2.391,2.391,0,0,1,2.683,3.955L784.64,183.293a9.258,9.258,0,0,1-7.918,1.357L761.644,180.4a8.833,8.833,0,0,0-7.987,1.663L749.6,185.4a1.3,1.3,0,0,0,.828,2.3,1.257,1.257,0,0,0,.819-.292l4.1-3.3a6.207,6.207,0,0,1,5.626-1.172l15.039,4.238a11.836,11.836,0,0,0,10.1-1.763l17.9-12.663a4.989,4.989,0,0,0,1.2-6.953C805.127,165.688,805.046,165.583,804.96,165.479Zm-18.833-2.352a1.365,1.365,0,0,1,1.772.268l.643.766-7.9,5.2-2.475-1.02Zm-.29,9.557a5.009,5.009,0,0,0-2.3-2.116l10.034-6.6a1.373,1.373,0,0,1,1.772.261l1.21,1.486Z" transform="translate(-740.656 -124.594)" fill="#282e3c"/>
  <path id="Trazado_11" data-name="Trazado 11" d="M764.151,149.231a17.54,17.54,0,0,1,3.765.536,1.3,1.3,0,0,0,.689-2.513h0a21.616,21.616,0,0,0-3.151-.56v-1.77a1.3,1.3,0,0,0-2.607,0v1.786c-3.495.475-3.916,2.859-3.916,3.948,0,2.705,2.791,3.832,4.461,4.537l.323.13.489.2c1.687.665,2.423,1.087,2.423,2.3s-.812,1.8-2.4,1.87h-.277a15.492,15.492,0,0,1-4.354-1.049,1.3,1.3,0,1,0-1.042,2.387,1.139,1.139,0,0,0,.107.042,21.019,21.019,0,0,0,4.184,1.12v1.754a1.3,1.3,0,0,0,2.607,0V162.13a4.242,4.242,0,0,0,3.778-4.345c0-3.066-2.544-4.077-4.062-4.684l-.766-.321c-1.2-.491-2.845-1.165-2.845-2.123C761.538,150.2,761.538,149.231,764.151,149.231Z" transform="translate(-728.187 -136.76)" fill="#282e3c"/>
</svg>
