<svg id="Grupo_29" data-name="Grupo 29" xmlns="http://www.w3.org/2000/svg" width="61.445" height="67.774" viewBox="0 0 61.445 67.774">
  <g id="Grupo_28" data-name="Grupo 28">
    <path id="Trazado_22" data-name="Trazado 22" d="M390.076,696.144a1.729,1.729,0,0,0,1.728-1.729v-4.57a1.728,1.728,0,1,0-3.457,0h0v4.57A1.729,1.729,0,0,0,390.076,696.144Z" transform="translate(-359.353 -668.746)" fill="#282e3c"/>
    <path id="Trazado_23" data-name="Trazado 23" d="M390.076,680.815a1.729,1.729,0,0,0,1.728-1.729v-4.564a1.728,1.728,0,1,0-3.457,0v4.57A1.728,1.728,0,0,0,390.076,680.815Z" transform="translate(-359.353 -665.167)" fill="#282e3c"/>
    <path id="Trazado_24" data-name="Trazado 24" d="M390.076,711.469a1.729,1.729,0,0,0,1.728-1.729v-4.563a1.728,1.728,0,1,0-3.457,0v4.563A1.729,1.729,0,0,0,390.076,711.469Z" transform="translate(-359.353 -672.329)" fill="#282e3c"/>
    <path id="Trazado_25" data-name="Trazado 25" d="M351.949,725.485a1.634,1.634,0,0,0,.3,0,1.729,1.729,0,0,0,1.7-1.431l4.764-27.48A10.814,10.814,0,0,1,364.057,689a56.052,56.052,0,0,1,5.373-2.648,34.285,34.285,0,0,1,5.684-1.936l.319,15.669a14.642,14.642,0,0,1-4.046,4.15,1.74,1.74,0,1,0,1.978,2.862h0a18.084,18.084,0,0,0,5.1-5.332l5.629-8.879a3.051,3.051,0,1,1,5.165,3.25h0l-4.2,6.811a16.173,16.173,0,0,0-2.441,9.045,12.711,12.711,0,0,1-5.532,10.9l-.456.311a16.116,16.116,0,0,0-4.564,4.751,1.738,1.738,0,0,0,2.946,1.846,12.692,12.692,0,0,1,3.589-3.741l.457-.311a16.17,16.17,0,0,0,5.787-7.171l.422.429a5.463,5.463,0,0,0,9.107-2.227,5.3,5.3,0,0,0,6.161-6.915l-.083-.242h7.005a4.5,4.5,0,0,0,4.5-4.5h0V667.343a4.5,4.5,0,0,0-4.5-4.5H379.61a4.5,4.5,0,0,0-4.5,4.5h0V680.82a36.4,36.4,0,0,0-7.06,2.317,59.636,59.636,0,0,0-5.712,2.877,14.26,14.26,0,0,0-7.033,10.02l-4.764,27.453a1.729,1.729,0,0,0,1.409,2Zm38.489-8.761a2.005,2.005,0,0,1-2.7-.152L385.9,714.7a16.384,16.384,0,0,0,.173-2.815,12.777,12.777,0,0,1,.145-2.281h1.93a.139.139,0,0,0,.048.1l2.7,4.384A2.019,2.019,0,0,1,390.438,716.724Zm5.933-3.458a1.833,1.833,0,0,1-2.379-.691h0c-.055-.1-.1-.194-.159-.29l-1.639-2.669h4.6l.491,1.382a1.84,1.84,0,0,1-.914,2.255Zm-8.45-46.967h19.535a1.044,1.044,0,0,1,1.044,1.044h0v37.763a1.044,1.044,0,0,1-1.044,1.045h-20.2a12.828,12.828,0,0,1,.74-1.383l4.232-6.8A6.507,6.507,0,0,0,390.152,689l-.108-.066a6.547,6.547,0,0,0-2.13-.809Zm-9.349,1.044a1.045,1.045,0,0,1,1.038-1.044h4.84v22.128a6.491,6.491,0,0,0-3.216,2.614l-2.642,4.149Z" transform="translate(-350.513 -662.841)" fill="#282e3c"/>
  </g>
</svg>
