<svg xmlns="http://www.w3.org/2000/svg" width="40.931" height="68.327" viewBox="0 0 40.931 68.327">
  <g id="Grupo_13" data-name="Grupo 13" transform="translate(0.25 0.25)">
    <path id="Trazado_7" data-name="Trazado 7" d="M983.122,147.481h-7.757v-7.233h4.2v-1.639H956.409v1.639h4.2v7.233h-7.758a5.087,5.087,0,0,0-5.081,5.083v41.675a5.074,5.074,0,0,0,4.318,5V202.5h3.5v1.417a2.526,2.526,0,0,0,2.525,2.523h1.332a2.526,2.526,0,0,0,2.525-2.523V202.5H974v1.417a2.526,2.526,0,0,0,2.525,2.523h1.332a2.525,2.525,0,0,0,2.523-2.523V202.5h3.5v-3.253a5.077,5.077,0,0,0,4.32-5V152.564A5.089,5.089,0,0,0,983.122,147.481Zm-20.87-7.233h11.474v7.233H962.252Zm-6.472,60.609h-2.05V199.32h3.879A2.528,2.528,0,0,0,955.78,200.857Zm4.556,1.639v1.417a.885.885,0,0,1-.884.884h-1.332a.885.885,0,0,1-.885-.884v-2.121a.885.885,0,0,1,.885-.886h1.332a.885.885,0,0,1,.884.886Zm13.849-1.639H961.791a2.527,2.527,0,0,0-1.831-1.537h16.055A2.53,2.53,0,0,0,974.185,200.857Zm4.557,1.639v1.417a.885.885,0,0,1-.884.884h-1.332a.886.886,0,0,1-.886-.884v-2.121a.886.886,0,0,1,.886-.886h1.332a.885.885,0,0,1,.884.886Zm3.5-1.639H980.2a2.527,2.527,0,0,0-1.829-1.537h3.877v1.537Zm4.318-6.618a3.446,3.446,0,0,1-3.442,3.442H952.856a3.447,3.447,0,0,1-3.444-3.442V152.564a3.447,3.447,0,0,1,3.444-3.443h30.267a3.447,3.447,0,0,1,3.442,3.443v41.675Z" transform="translate(-947.773 -138.609)" fill="#282e3c" stroke="#282e3c" stroke-miterlimit="10" stroke-width="0.5"/>
    <path id="Trazado_8" data-name="Trazado 8" d="M951.954,154.419H957.1v3.655h1.64v-3.655h20.49v-1.639H951.954Z" transform="translate(-945.377 -130.488)" fill="#282e3c" stroke="#282e3c" stroke-miterlimit="10" stroke-width="0.5"/>
  </g>
</svg>
