<svg xmlns="http://www.w3.org/2000/svg" width="64.824" height="64.816" viewBox="0 0 64.824 64.816">
  <g id="Grupo_92" data-name="Grupo 92" transform="translate(0)">
    <path id="Trazado_8" data-name="Trazado 8" d="M1200.21,151.383a32.4,32.4,0,1,0-18.793,55.06q1.228-.154,2.434-.4a32.41,32.41,0,0,0,16.359-54.656ZM1176.763,203.9h-.743l-.323-.013-.224-.015-.31-.02-.224-.017-.3-.026-.226-.022-.3-.029-.226-.027-.29-.033-.226-.033-.288-.037-.226-.037-.286-.046-.226-.039-.286-.05-.224-.042-.286-.057-.226-.046-.284-.059-.224-.053-.284-.064-.226-.055-.28-.07-.226-.061-.283-.073-.224-.064-.283-.081-.226-.068-.279-.084-.225-.07-.278-.092-.223-.073-.28-.1-.224-.079-.277-.1-.226-.081-.277-.108-.213-.084-.277-.114-.21-.086-.277-.119-.207-.09-.275-.127-.2-.092-.276-.134-.2-.094-.275-.138-.2-.1-.277-.145-.189-.1-.284-.156-.18-.1-.3-.165-.167-.1-.323-.191-.132-.079c-.151-.09-.3-.184-.451-.277a16.169,16.169,0,0,1,10.615-18.916l.079.035.143.059.178.072.143.057.184.066.141.05.191.066.136.046.226.064.112.035.327.092.075.018.258.062.127.028.209.044.141.027.2.037.146.024.2.033.148.02.195.024.149.016a1.917,1.917,0,0,1,.2.02l.143.013.211.013h1.655l.21-.013.146-.013.2-.02.147-.016.2-.024.147-.02.2-.033.147-.024.2-.037.14-.027.209-.044.127-.028.26-.064.073-.017.329-.092.11-.033.226-.066.132-.044.194-.068.14-.05.181-.066.145-.057.179-.072.14-.059.079-.035a16.178,16.178,0,0,1,10.668,18.9c-.149.094-.3.187-.452.277l-.143.086-.312.184-.176.1-.284.163c-.062.035-.125.066-.187.1l-.276.149-.2.1-.273.141-.2.1-.27.136-.206.1-.274.13-.208.094-.27.123-.211.092-.274.119-.211.088-.276.112-.225.086-.275.106-.224.081-.275.1-.226.079c-.092.031-.186.066-.277.1l-.226.077-.273.09-.226.07-.277.084-.225.068-.279.081-.225.064-.279.073-.226.062-.283.07-.224.053-.283.066-.226.051-.281.059-.225.049-.283.053-.226.044-.284.049-.237.039-.286.044-.224.037-.29.039-.224.031-.292.033-.225.028-.294.029-.226.022-.3.026-.226.016-.306.022-.226.013-.321.013h-1.276A2.8,2.8,0,0,1,1176.763,203.9Zm4.907-26.174a9.945,9.945,0,0,1-4.375,1,10.354,10.354,0,0,1-1.7-.141,9.91,9.91,0,0,1-2.678-.861h0a10.016,10.016,0,1,1,8.752,0Zm14.524,19.378c.029-.428.042-.859.042-1.288a18.783,18.783,0,0,0-3.83-11.437,19.141,19.141,0,0,0-7.038-5.7,12.81,12.81,0,1,0-16.13,0,19.155,19.155,0,0,0-7.036,5.7,18.77,18.77,0,0,0-3.83,11.437c0,.429.014.861.044,1.288a29.608,29.608,0,1,1,37.8,0Z" transform="translate(-1144.885 -141.89)" fill="#282e3c"/>
  </g>
</svg>
