<svg id="leader" xmlns="http://www.w3.org/2000/svg" width="77.493" height="78.177" viewBox="0 0 77.493 78.177">
  <g id="Grupo_172" data-name="Grupo 172" transform="translate(0 14.315)">
    <g id="Grupo_171" data-name="Grupo 171" transform="translate(0)">
      <path id="Trazado_94" data-name="Trazado 94" d="M56.141,136.122H44.415V125.7a6.515,6.515,0,0,0-6.515-6.515H30.082V112.03L47.776,99.391a1.291,1.291,0,0,0,.287-1.837l-3.909-5.212a1.3,1.3,0,0,0-1.785-.287l-13.355,9.238a9.121,9.121,0,1,0-14.424,2.254H13.144a1.3,1.3,0,0,0-.964.43l-8.417,9.355a6.515,6.515,0,0,0,.261,8.964l6.893,6.932a1.311,1.311,0,0,0,1.994-.169l1.537-2.176v23.571a1.3,1.3,0,0,0,1.3,1.3h7.818a1.3,1.3,0,0,0,1.3-1.3V129.607h9.121v6.515H30.082a1.3,1.3,0,0,0-1.3,1.3v13.03a1.3,1.3,0,0,0,1.3,1.3H56.141a1.3,1.3,0,0,0,1.3-1.3v-13.03A1.3,1.3,0,0,0,56.141,136.122ZM14.447,97.033a6.515,6.515,0,1,1,6.515,6.515A6.515,6.515,0,0,1,14.447,97.033Zm9.616,9.121-1.8,3.6-1.8-3.6Zm-9.616,13.955-2.085-2.228,2.085-2.085ZM23.567,127a1.3,1.3,0,0,0-1.3,1.3v20.847H17.053V112.668a1.311,1.311,0,0,0-2.228-.925l-5.212,5.212a1.3,1.3,0,0,0,0,1.824l4.261,4.443-2.2,3.075-5.837-5.811a3.909,3.909,0,0,1-.143-5.407l8.039-8.925h3.818l3.557,7.1a1.3,1.3,0,0,0,2.319,0l3.766-7.518L42.825,94.909l2.358,3.14L28.023,110.31a1.3,1.3,0,0,0-.547,1.055v9.121a1.3,1.3,0,0,0,1.3,1.3H37.9a3.909,3.909,0,0,1,3.909,3.909v10.424H36.6V128.3a1.3,1.3,0,0,0-1.3-1.3Zm31.271,22.15H31.385V138.728H54.838Z" transform="translate(-2.102 -87.895)" fill="#282e3c"/>
    </g>
  </g>
  <g id="Grupo_174" data-name="Grupo 174" transform="translate(54.039)">
    <g id="Grupo_173" data-name="Grupo 173">
      <path id="Trazado_95" data-name="Trazado 95" d="M356.047,10.424A9.121,9.121,0,0,1,346.927,1.3a1.3,1.3,0,1,0-2.606,0,9.121,9.121,0,0,1-9.121,9.121,1.3,1.3,0,0,0,0,2.606,9.121,9.121,0,0,1,9.121,9.121,1.3,1.3,0,1,0,2.606,0,9.121,9.121,0,0,1,9.121-9.121,1.3,1.3,0,1,0,0-2.606Zm-10.424,6.358a11.83,11.83,0,0,0-5.056-5.055,11.832,11.832,0,0,0,5.056-5.055,11.831,11.831,0,0,0,5.055,5.055A11.831,11.831,0,0,0,345.624,16.782Z" transform="translate(-333.897)" fill="#282e3c"/>
    </g>
  </g>
  <g id="Grupo_176" data-name="Grupo 176" transform="translate(40.238 32.824)">
    <g id="Grupo_175" data-name="Grupo 175" transform="translate(0 0)">
      <rect id="Rectángulo_148" data-name="Rectángulo 148" width="4.404" height="2.606" transform="translate(0 2.604) rotate(-36.251)" fill="#282e3c"/>
    </g>
  </g>
  <g id="Grupo_178" data-name="Grupo 178" transform="translate(46.762 21.098)">
    <g id="Grupo_177" data-name="Grupo 177" transform="translate(0 0)">
      <rect id="Rectángulo_149" data-name="Rectángulo 149" width="16.157" height="2.606" transform="translate(0 9.558) rotate(-36.272)" fill="#282e3c"/>
    </g>
  </g>
  <g id="Grupo_180" data-name="Grupo 180" transform="translate(46.796 14.548)">
    <g id="Grupo_179" data-name="Grupo 179" transform="translate(0 0)">
      <rect id="Rectángulo_150" data-name="Rectángulo 150" width="9.394" height="2.606" transform="translate(0 5.211) rotate(-33.692)" fill="#282e3c"/>
    </g>
  </g>
</svg>
