<svg id="order" xmlns="http://www.w3.org/2000/svg" width="73.157" height="81.44" viewBox="0 0 73.157 81.44">
  <g id="Grupo_190" data-name="Grupo 190" transform="translate(5.521 45.549)">
    <g id="Grupo_189" data-name="Grupo 189" transform="translate(0)">
      <path id="Trazado_100" data-name="Trazado 100" d="M57.384,264a1.38,1.38,0,0,0-1.38,1.38V270.9a1.38,1.38,0,0,0,2.761,0v-5.521A1.38,1.38,0,0,0,57.384,264Z" transform="translate(-56.004 -264.002)" fill="#282e3c"/>
    </g>
  </g>
  <g id="Grupo_192" data-name="Grupo 192" transform="translate(11.042 48.309)">
    <g id="Grupo_191" data-name="Grupo 191">
      <path id="Trazado_101" data-name="Trazado 101" d="M89.384,280a1.38,1.38,0,0,0-1.38,1.38V286.9a1.38,1.38,0,0,0,2.761,0v-5.521A1.38,1.38,0,0,0,89.384,280Z" transform="translate(-88.004 -280.002)" fill="#282e3c"/>
    </g>
  </g>
  <g id="Grupo_194" data-name="Grupo 194" transform="translate(45.55 53.83)">
    <g id="Grupo_193" data-name="Grupo 193">
      <path id="Trazado_102" data-name="Trazado 102" d="M305.231,313.889a1.38,1.38,0,0,0-1.546,2.286,8.281,8.281,0,1,1-4.629-1.412,1.38,1.38,0,1,0,0-2.76,11.042,11.042,0,1,0,6.175,1.887Z" transform="translate(-288.016 -312.002)" fill="#282e3c"/>
    </g>
  </g>
  <g id="Grupo_196" data-name="Grupo 196" transform="translate(0 0)">
    <g id="Grupo_195" data-name="Grupo 195" transform="translate(0 0)">
      <path id="Trazado_103" data-name="Trazado 103" d="M96.507,60.288A16.556,16.556,0,0,0,87.5,49.828v-30.5a1.38,1.38,0,0,0-.678-1.188L56.452.192a1.38,1.38,0,0,0-1.405,0L24.682,18.136c-.029.017-.05.041-.077.061s-.054.041-.081.063a1.361,1.361,0,0,0-.305.337c0,.01-.017.015-.022.025v.01a1.38,1.38,0,0,0-.156.451,1.222,1.222,0,0,1-.017.121,1.207,1.207,0,0,0-.019.12V55.211a1.38,1.38,0,0,0,.678,1.188L55.047,74.342a1.13,1.13,0,0,0,.112.047,1.087,1.087,0,0,0,.116.05,1.231,1.231,0,0,0,.95,0,1.108,1.108,0,0,0,.117-.05c.036-.017.075-.026.11-.047l8.241-4.871a16.556,16.556,0,0,0,31.813-9.184ZM55.75,2.983l7.177,4.242L52.285,13.513a1.381,1.381,0,1,0,1.405,2.378L65.642,8.834l7.177,4.242L45.167,29.411,37.99,25.169l11.562-6.832a1.381,1.381,0,1,0-1.405-2.378L35.277,23.566,28.1,19.324ZM43.787,31.8v9.216l-7.13-4.214V27.589Zm20.79,28.8a16.817,16.817,0,0,0-.454,6L57.13,70.736V66.253a1.38,1.38,0,1,0-2.761,0v4.483L26.764,54.424V21.744L33.9,25.958V37.592a1.38,1.38,0,0,0,.678,1.19l9.891,5.845a1.381,1.381,0,0,0,2.083-1.188V33.433l7.822,4.622V60.732a1.38,1.38,0,0,0,2.761,0V38.056L82.146,23.273A1.381,1.381,0,1,0,80.741,20.9L55.75,35.665l-7.867-4.65L75.534,14.674l9.2,5.437V48.862A16.5,16.5,0,0,0,64.577,60.606ZM80.594,78.675a13.8,13.8,0,1,1,13.8-13.8A13.8,13.8,0,0,1,80.594,78.675Z" transform="translate(-24.004 0)" fill="#282e3c"/>
    </g>
  </g>
  <g id="Grupo_198" data-name="Grupo 198" transform="translate(51.086 60.748)">
    <g id="Grupo_197" data-name="Grupo 197" transform="translate(0)">
      <path id="Trazado_104" data-name="Trazado 104" d="M330.689,352.487a1.38,1.38,0,0,0-1.918,0l-5.235,5.235-1.095-1.095a1.38,1.38,0,0,0-1.952,1.952l2.07,2.07a1.38,1.38,0,0,0,1.952,0l6.211-6.211A1.38,1.38,0,0,0,330.689,352.487Z" transform="translate(-320.102 -352.1)" fill="#282e3c"/>
    </g>
  </g>
</svg>
