<svg xmlns="http://www.w3.org/2000/svg" width="53.738" height="68.747" viewBox="0 0 53.738 68.747">
  <g id="shield" transform="translate(0.445 0.515)">
    <path id="Trazado_45" data-name="Trazado 45" d="M52.122,13.712,26.667.149a1.265,1.265,0,0,0-1.205.007L.712,13.72a1.267,1.267,0,0,0-.658,1.112V32.548A36.685,36.685,0,0,0,22.042,66.123l3.435,1.5a1.266,1.266,0,0,0,1.008,0l3.871-1.672A36.613,36.613,0,0,0,52.793,32.2V14.831A1.268,1.268,0,0,0,52.122,13.712ZM50.258,32.2A34.084,34.084,0,0,1,29.365,63.618l-.008,0-3.371,1.455L23.057,63.8A34.147,34.147,0,0,1,2.588,32.548V15.582L26.08,2.707,50.258,15.591Zm0,0" fill="#282e3c" stroke="#282e3c" stroke-width="1"/>
    <path id="Trazado_46" data-name="Trazado 46" d="M82.073,151.328a1.267,1.267,0,0,0-1.928,1.646l6.694,7.839a1.267,1.267,0,0,0,1.763.161l15.59-12.684a1.267,1.267,0,1,0-1.6-1.966l-14.63,11.9Zm0,0" transform="translate(-65.343 -119.601)" fill="#282e3c" stroke="#282e3c" stroke-width="1"/>
  </g>
</svg>
