<svg id="monitor" xmlns="http://www.w3.org/2000/svg" width="80.828" height="68.173" viewBox="0 0 80.828 68.173">
  <g id="Grupo_182" data-name="Grupo 182" transform="translate(0 0)">
    <g id="Grupo_181" data-name="Grupo 181">
      <path id="Trazado_96" data-name="Trazado 96" d="M75.848,40.081H4.981A4.986,4.986,0,0,0,0,45.061V93.15a4.986,4.986,0,0,0,4.981,4.98H28.949l-.969,7.756H23.963a1.184,1.184,0,0,0,0,2.368h32.9a1.184,1.184,0,1,0,0-2.368H52.849l-.97-7.756H75.848a4.986,4.986,0,0,0,4.981-4.98V45.061A4.986,4.986,0,0,0,75.848,40.081ZM30.366,105.886l.97-7.756h4.358l.428,1.71a4.426,4.426,0,0,0,8.587,0l.428-1.71h4.358l.969,7.756Zm7.768-7.756h4.56l-.284,1.135a2.058,2.058,0,0,1-3.992,0ZM78.46,93.15h0a2.615,2.615,0,0,1-2.613,2.612H4.981A2.615,2.615,0,0,1,2.368,93.15V45.061a2.615,2.615,0,0,1,2.613-2.612H75.848a2.615,2.615,0,0,1,2.613,2.612V93.15Z" transform="translate(0 -40.081)" fill="#282e3c"/>
    </g>
  </g>
  <g id="Grupo_184" data-name="Grupo 184" transform="translate(5.062 5.062)">
    <g id="Grupo_183" data-name="Grupo 183">
      <path id="Trazado_97" data-name="Trazado 97" d="M93.991,72.146H33.248a1.184,1.184,0,0,0-1.184,1.184v45.557a1.184,1.184,0,0,0,1.184,1.184h2.531a1.184,1.184,0,0,0,0-2.368H34.432V74.514H93.991a1.184,1.184,0,0,0,0-2.368Z" transform="translate(-32.064 -72.146)" fill="#282e3c"/>
    </g>
  </g>
  <g id="Grupo_186" data-name="Grupo 186" transform="translate(12.655 5.062)">
    <g id="Grupo_185" data-name="Grupo 185">
      <path id="Trazado_98" data-name="Trazado 98" d="M142.089,72.146h-2.531a1.184,1.184,0,1,0,0,2.368h1.347V117.7H81.346a1.184,1.184,0,1,0,0,2.368h60.743a1.184,1.184,0,0,0,1.184-1.184V73.33A1.184,1.184,0,0,0,142.089,72.146Z" transform="translate(-80.162 -72.146)" fill="#282e3c"/>
    </g>
  </g>
  <g id="Grupo_188" data-name="Grupo 188" transform="translate(21.514 12.655)">
    <g id="Grupo_187" data-name="Grupo 187">
      <path id="Trazado_99" data-name="Trazado 99" d="M171.295,125.757a1.184,1.184,0,0,0-.879-.453l-27.841-1.266h-.065a2.453,2.453,0,0,0-.984-1.325l-3.409-2.273a1.184,1.184,0,0,0-1.313,1.97l3.409,2.273a.082.082,0,0,1,.033.046l4.343,15.2a3.728,3.728,0,0,0,.645,1.268l-1.589,3.178a2.434,2.434,0,0,0,.107,2.383,2.459,2.459,0,0,0,.607.668,3.715,3.715,0,1,0,6.686.493H161.84a3.715,3.715,0,1,0,6.786-.307,1.183,1.183,0,0,0-.794-2.061h-22a.081.081,0,0,1-.073-.118l1.464-2.927a3.717,3.717,0,0,0,.926.118,3.817,3.817,0,0,0,.443-.026l16.637-1.957a4.969,4.969,0,0,0,4.3-3.97l1.99-9.951A1.184,1.184,0,0,0,171.295,125.757ZM165.3,147.919a1.347,1.347,0,1,1-1.347,1.347A1.348,1.348,0,0,1,165.3,147.919Zm-17.717,0a1.347,1.347,0,1,1-1.347,1.347A1.348,1.348,0,0,1,147.584,147.919Zm-2.9-16.288-1.484-5.193,4.734.215.821,4.978Zm3.638,8.615a1.341,1.341,0,0,1-1.453-.968L145.357,134h3.784l.995,6.033Zm6.94-.816-2.768.326L151.541,134h3.717Zm0-7.8h-4.107l-.8-4.868,4.91.223Zm6,7.093-3.628.427V134h4.056Zm.642-7.093h-4.27v-4.537l4.662.212Zm5.315,4.576a2.606,2.606,0,0,1-2.256,2.082l-1.3.153.4-4.442h3.593Zm.915-4.576h-3.852l.382-4.218,4.275.194Z" transform="translate(-136.276 -120.241)" fill="#282e3c"/>
    </g>
  </g>
</svg>
