<svg id="Grupo_31" data-name="Grupo 31" xmlns="http://www.w3.org/2000/svg" width="61.806" height="61.819" viewBox="0 0 61.806 61.819">
  <path id="Trazado_26" data-name="Trazado 26" d="M819.03,724.66h2.943V701.851h-5.886v-15.68a5.784,5.784,0,0,1,5.886-5.659H830.8a5.784,5.784,0,0,1,5.886,5.659v15.68H830.8V724.66h2.944V704.794h2.943v13.244a3.68,3.68,0,0,0,2.561,3.487v3.134h2.943v-2.943h7.74v2.943H874.95V707h-5.886v-2.472a2.722,2.722,0,0,0-2.759-2.678h-4.6v-1.471a3.679,3.679,0,0,0-3.679-3.679h-2.943v-6.622a2.877,2.877,0,0,0-2.8-2.943h-6.181a2.877,2.877,0,0,0-2.8,2.943V696.7h-2.944a3.989,3.989,0,0,0-.735.073v-10.6a8.667,8.667,0,0,0-6.88-8.38,8.83,8.83,0,1,0-12.73,0,8.666,8.666,0,0,0-6.879,8.38v18.623h5.886Zm47.091-19.866V707h-7.358v-2.207Zm-19.867-14.716h5.886V696.7h-5.886Zm-6.622,14.716v-4.415a.736.736,0,0,1,.735-.736h17.659a.736.736,0,0,1,.736.736v1.471h-.184a2.723,2.723,0,0,0-2.759,2.678V707h-5.886v6.622h2.943v-3.679h19.13v11.773h-19.13v-5.151h-2.943v2.207h-9.565a.735.735,0,0,1-.735-.735Zm-13.244-39a5.886,5.886,0,1,1-5.886,5.886A5.886,5.886,0,0,1,826.388,665.8Z" transform="translate(-813.144 -662.841)" fill="#282e3c"/>
  <rect id="Rectángulo_34" data-name="Rectángulo 34" width="2.943" height="12.508" transform="translate(30.167 40.481)" fill="#282e3c"/>
</svg>
